<svg xmlns="http://www.w3.org/2000/svg" width="468.759" height="468.759"><g><title>background</title><rect id="canvas_background" width="802" height="602" x="-1" y="-1" fill="none"/></g><g><title>Layer 1</title><g id="svg_1"><path id="svg_2" fill="#fff" d="m234.374,0c-72.256,0 -131.033,59.728 -131.033,133.146c0,29.205 16.976,55.49 31.951,78.672c8.825,13.66 17.153,26.563 19.024,36.209c5.267,27.225 8.281,91.806 8.311,92.456c0.207,4.516 3.922,8.068 8.449,8.068l126.611,0c2.323,0 4.54,-0.952 6.142,-2.642c1.596,-1.697 2.43,-3.967 2.299,-6.283c-1.572,-28.307 -0.49,-78.489 9.127,-92.699c1.666,-2.459 3.582,-5.178 5.65,-8.156c16.645,-23.759 44.514,-63.541 44.514,-105.632c-0.013,-73.405 -58.789,-133.139 -131.045,-133.139zm72.676,229.092c-2.134,3.047 -4.091,5.85 -5.805,8.367c-13.246,19.588 -13.068,72.359 -12.377,94.193l-109.76,0c-0.993,-18.535 -3.783,-64.025 -8.189,-86.822c-2.489,-12.874 -11.26,-26.451 -21.427,-42.183c-13.71,-21.226 -29.247,-45.273 -29.247,-69.496c0,-64.096 51.199,-116.235 114.128,-116.235c62.929,0 114.128,52.139 114.128,116.235c0.001,36.76 -25.947,73.805 -41.451,95.941zm-138.197,132.026l131.033,0l0,65.521c0,12.318 -7.979,22.662 -19.021,26.445c-2.046,8.973 -10.031,15.675 -19.618,15.675l-53.759,0c-9.587,0 -17.572,-6.702 -19.618,-15.675c-11.038,-3.783 -19.024,-14.127 -19.024,-26.445l0,-65.521l0.007,0z"/></g></g></svg>