<?xml version="1.0" encoding="UTF-8"?>
<svg xmlns="http://www.w3.org/2000/svg" xmlns:xlink="http://www.w3.org/1999/xlink" width="600pt" height="599.999999pt" viewBox="0 0 600 599.999999" version="1.2">
<defs>
<clipPath id="clip1">
  <path d="M 75.453125 279 L 524.703125 279 L 524.703125 580.320312 L 75.453125 580.320312 Z M 75.453125 279 "/>
</clipPath>
<clipPath id="clip2">
  <path d="M 225 19.320312 L 378 19.320312 L 378 256 L 225 256 Z M 225 19.320312 "/>
</clipPath>
</defs>
<g id="surface1">
<g clip-path="url(#clip1)" clip-rule="nonzero">
<path style=" stroke:none;fill-rule:nonzero;fill:rgb(100%,100%,100%);fill-opacity:1;" d="M 517.464844 349.097656 L 307.054688 349.097656 L 307.054688 286.460938 C 307.054688 282.585938 303.917969 279.453125 300.039062 279.453125 C 296.160156 279.453125 293.023438 282.585938 293.023438 286.460938 L 293.023438 349.097656 L 82.613281 349.097656 C 78.734375 349.097656 75.597656 352.230469 75.597656 356.105469 C 75.597656 386.457031 81.761719 415.921875 93.648438 443.820312 C 91.839844 447.855469 90.785156 452.296875 90.785156 456.996094 C 90.785156 473.589844 103.371094 487.148438 119.480469 489.042969 C 154.308594 536.289062 205.160156 567.636719 263.222656 577.285156 C 275.679688 579.351562 288.140625 580.371094 300.519531 580.371094 C 346.910156 580.371094 392.0625 566 430.558594 538.507812 C 449.820312 524.753906 466.597656 508.078125 480.632812 489.039062 C 496.726562 487.128906 509.292969 473.578125 509.292969 456.996094 C 509.292969 452.296875 508.238281 447.855469 506.429688 443.820312 C 518.3125 415.921875 524.480469 386.457031 524.480469 356.105469 C 524.480469 352.230469 521.34375 349.097656 517.464844 349.097656 Z M 104.816406 456.996094 C 104.816406 446.839844 113.085938 438.578125 123.25 438.578125 C 133.417969 438.578125 141.6875 446.839844 141.6875 456.996094 C 141.6875 467.144531 133.417969 475.40625 123.25 475.40625 C 113.085938 475.40625 104.816406 467.144531 104.816406 456.996094 Z M 422.40625 527.105469 C 376.671875 559.75 320.925781 572.671875 265.523438 563.453125 C 213.714844 554.84375 168.121094 527.703125 135.671875 486.933594 C 147.421875 482.050781 155.714844 470.484375 155.714844 456.996094 C 155.714844 439.113281 141.152344 424.5625 123.25 424.5625 C 115.929688 424.5625 109.242188 427.085938 103.808594 431.183594 C 95.417969 409.335938 90.761719 386.535156 89.992188 363.113281 L 510.089844 363.113281 C 509.316406 386.535156 504.664062 409.335938 496.269531 431.1875 C 490.835938 427.085938 484.148438 424.5625 476.828125 424.5625 C 458.925781 424.5625 444.363281 439.113281 444.363281 456.996094 C 444.363281 470.515625 452.695312 482.097656 464.492188 486.960938 C 452.347656 502.199219 438.3125 515.746094 422.40625 527.105469 Z M 476.828125 475.40625 C 466.660156 475.40625 458.390625 467.144531 458.390625 456.996094 C 458.390625 446.839844 466.660156 438.578125 476.828125 438.578125 C 486.992188 438.578125 495.261719 446.839844 495.261719 456.996094 C 495.261719 467.144531 486.992188 475.40625 476.828125 475.40625 Z M 476.828125 475.40625 "/>
</g>
<g clip-path="url(#clip2)" clip-rule="nonzero">
<path style=" stroke:none;fill-rule:nonzero;fill:rgb(100%,100%,100%);fill-opacity:1;" d="M 300.105469 255.027344 C 316.742188 255.027344 333.476562 249.476562 347.265625 238.089844 C 358.542969 228.78125 366.75 216.46875 370.992188 202.480469 C 391.761719 134.027344 364.140625 59.304688 303.820312 20.769531 C 301.574219 19.335938 298.675781 19.296875 296.394531 20.6875 C 294.105469 22.074219 292.8125 24.648438 293.050781 27.3125 C 296.433594 64.199219 281.390625 100.308594 252.808594 123.898438 C 221.296875 149.910156 216.84375 196.691406 242.882812 228.171875 C 257.523438 245.875 278.734375 255.027344 300.105469 255.027344 Z M 261.742188 134.699219 C 290.140625 111.265625 306.65625 76.855469 307.519531 40.546875 C 354.667969 77.394531 375.175781 140.371094 357.5625 198.414062 C 354.125 209.753906 347.472656 219.738281 338.335938 227.289062 C 312.773438 248.382812 274.808594 244.769531 253.695312 219.246094 C 232.585938 193.71875 236.199219 155.789062 261.742188 134.699219 Z M 261.742188 134.699219 "/>
</g>
<path style=" stroke:none;fill-rule:nonzero;fill:rgb(100%,100%,100%);fill-opacity:1;" d="M 300.039062 431.1875 C 282.136719 431.1875 267.574219 445.738281 267.574219 463.621094 C 267.574219 481.503906 282.136719 496.046875 300.039062 496.046875 C 317.941406 496.046875 332.503906 481.503906 332.503906 463.621094 C 332.503906 445.738281 317.941406 431.1875 300.039062 431.1875 Z M 300.039062 482.03125 C 289.871094 482.03125 281.605469 473.769531 281.605469 463.621094 C 281.605469 453.464844 289.871094 445.203125 300.039062 445.203125 C 310.207031 445.203125 318.472656 453.464844 318.472656 463.621094 C 318.472656 473.769531 310.207031 482.03125 300.039062 482.03125 Z M 300.039062 482.03125 "/>
</g>
</svg>
