<?xml version="1.0" encoding="UTF-8"?>
<svg xmlns="http://www.w3.org/2000/svg" xmlns:xlink="http://www.w3.org/1999/xlink" width="525pt" height="525.000007pt" viewBox="0 0 525 525.000007" version="1.2">
<defs>
<clipPath id="clip1">
  <path d="M 65.867188 244 L 458.613281 244 L 458.613281 508.023438 L 65.867188 508.023438 Z M 65.867188 244 "/>
</clipPath>
<clipPath id="clip2">
  <path d="M 197 16.210938 L 331 16.210938 L 331 223 L 197 223 Z M 197 16.210938 "/>
</clipPath>
</defs>
<g id="surface1">
<g clip-path="url(#clip1)" clip-rule="nonzero">
<path style=" stroke:none;fill-rule:nonzero;fill:rgb(0%,0%,0%);fill-opacity:1;" d="M 452.285156 305.453125 L 268.335938 305.453125 L 268.335938 250.515625 C 268.335938 247.121094 265.59375 244.371094 262.203125 244.371094 C 258.8125 244.371094 256.070312 247.121094 256.070312 250.515625 L 256.070312 305.453125 L 72.121094 305.453125 C 68.730469 305.453125 65.988281 308.203125 65.988281 311.601562 C 65.988281 338.222656 71.378906 364.066406 81.769531 388.535156 C 80.1875 392.074219 79.265625 395.96875 79.265625 400.09375 C 79.265625 414.644531 90.269531 426.539062 104.351562 428.199219 C 134.800781 469.636719 179.257812 497.132812 230.019531 505.59375 C 240.90625 507.410156 251.800781 508.304688 262.621094 508.304688 C 303.179688 508.304688 342.65625 495.695312 376.308594 471.585938 C 393.148438 459.523438 407.816406 444.894531 420.085938 428.195312 C 434.15625 426.519531 445.140625 414.636719 445.140625 400.09375 C 445.140625 395.96875 444.21875 392.074219 442.636719 388.535156 C 453.027344 364.066406 458.417969 338.222656 458.417969 311.601562 C 458.417969 308.203125 455.675781 305.453125 452.285156 305.453125 Z M 91.53125 400.09375 C 91.53125 391.183594 98.761719 383.9375 107.648438 383.9375 C 116.535156 383.9375 123.765625 391.183594 123.765625 400.09375 C 123.765625 408.996094 116.535156 416.238281 107.648438 416.238281 C 98.761719 416.238281 91.53125 408.996094 91.53125 400.09375 Z M 369.179688 461.582031 C 329.199219 490.214844 280.464844 501.550781 232.03125 493.464844 C 186.734375 485.914062 146.875 462.109375 118.507812 426.351562 C 128.78125 422.066406 136.03125 411.921875 136.03125 400.09375 C 136.03125 384.40625 123.296875 371.644531 107.648438 371.644531 C 101.25 371.644531 95.402344 373.859375 90.648438 377.453125 C 83.3125 358.289062 79.246094 338.292969 78.570312 317.746094 L 445.835938 317.746094 C 445.160156 338.292969 441.09375 358.289062 433.757812 377.453125 C 429.003906 373.859375 423.160156 371.644531 416.757812 371.644531 C 401.109375 371.644531 388.375 384.40625 388.375 400.09375 C 388.375 411.949219 395.664062 422.109375 405.972656 426.375 C 395.359375 439.738281 383.089844 451.621094 369.179688 461.582031 Z M 416.757812 416.238281 C 407.871094 416.238281 400.640625 408.996094 400.640625 400.09375 C 400.640625 391.183594 407.871094 383.9375 416.757812 383.9375 C 425.648438 383.9375 432.875 391.183594 432.875 400.09375 C 432.875 408.996094 425.648438 416.238281 416.757812 416.238281 Z M 416.757812 416.238281 "/>
</g>
<g clip-path="url(#clip2)" clip-rule="nonzero">
<path style=" stroke:none;fill-rule:nonzero;fill:rgb(0%,0%,0%);fill-opacity:1;" d="M 262.261719 222.945312 C 276.804688 222.945312 291.4375 218.078125 303.492188 208.089844 C 313.351562 199.925781 320.527344 189.128906 324.234375 176.859375 C 342.390625 116.820312 318.242188 51.28125 265.507812 17.480469 C 263.546875 16.226562 261.011719 16.191406 259.015625 17.410156 C 257.015625 18.628906 255.886719 20.886719 256.09375 23.21875 C 259.054688 55.574219 245.902344 87.246094 220.914062 107.9375 C 193.363281 130.753906 189.472656 171.78125 212.234375 199.394531 C 225.035156 214.921875 243.578125 222.945312 262.261719 222.945312 Z M 228.722656 117.40625 C 253.550781 96.855469 267.988281 66.671875 268.742188 34.828125 C 309.960938 67.148438 327.890625 122.382812 312.496094 173.292969 C 309.488281 183.238281 303.671875 191.996094 295.683594 198.617188 C 273.335938 217.117188 240.144531 213.949219 221.6875 191.566406 C 203.234375 169.175781 206.390625 135.910156 228.722656 117.40625 Z M 228.722656 117.40625 "/>
</g>
<path style=" stroke:none;fill-rule:nonzero;fill:rgb(0%,0%,0%);fill-opacity:1;" d="M 262.203125 377.457031 C 246.554688 377.457031 233.820312 390.21875 233.820312 405.902344 C 233.820312 421.589844 246.554688 434.34375 262.203125 434.34375 C 277.851562 434.34375 290.585938 421.589844 290.585938 405.902344 C 290.585938 390.21875 277.851562 377.457031 262.203125 377.457031 Z M 262.203125 422.050781 C 253.316406 422.050781 246.085938 414.804688 246.085938 405.902344 C 246.085938 396.996094 253.316406 389.75 262.203125 389.75 C 271.089844 389.75 278.320312 396.996094 278.320312 405.902344 C 278.320312 414.804688 271.089844 422.050781 262.203125 422.050781 Z M 262.203125 422.050781 "/>
</g>
</svg>
